<?xml version="1.0" standalone="no"?>
<!DOCTYPE svg PUBLIC "-//W3C//DTD SVG 20010904//EN"
 "http://www.w3.org/TR/2001/REC-SVG-20010904/DTD/svg10.dtd">
<svg version="1.0" xmlns="http://www.w3.org/2000/svg"
 width="1280.000000pt" height="1040.000000pt" viewBox="0 0 1280.000000 1040.000000"
 preserveAspectRatio="xMidYMid meet">
<g transform="translate(0.000000,1040.000000) scale(0.100000,-0.100000)"
fill="#00bcd4" stroke="none">
<path d="M10420 10370 c-125 -41 -175 -73 -276 -174 -145 -145 -281 -339 -387
-551 -77 -154 -90 -203 -90 -340 1 -225 77 -406 181 -435 54 -15 182 -12 269
6 164 34 279 90 411 200 80 67 107 77 117 45 8 -26 -6 -57 -60 -129 -81 -108
-273 -257 -364 -282 -53 -15 -244 -12 -341 5 -101 18 -215 70 -258 119 -16 19
-38 55 -48 81 -15 41 -16 56 -6 113 6 37 9 68 8 70 -7 6 -162 -117 -251 -199
-49 -45 -211 -197 -360 -338 -357 -338 -396 -375 -490 -457 -319 -281 -614
-490 -850 -604 -161 -78 -205 -91 -525 -155 -346 -69 -510 -81 -1050 -71 -622
10 -1018 42 -1340 106 -80 16 -230 46 -335 65 -246 47 -369 74 -595 135 -276
74 -396 83 -580 45 -161 -34 -296 -95 -660 -299 -124 -70 -250 -136 -279 -147
-30 -11 -76 -36 -102 -55 -58 -42 -119 -69 -290 -129 -149 -53 -225 -88 -314
-148 -127 -86 -243 -220 -271 -315 -19 -61 -32 -364 -44 -992 -13 -637 -27
-820 -85 -1105 -32 -154 -70 -270 -152 -458 -110 -255 -119 -271 -351 -580
-226 -302 -258 -368 -293 -605 -34 -235 -59 -320 -144 -484 -41 -81 -90 -182
-109 -225 -18 -43 -51 -113 -71 -156 -35 -71 -37 -79 -22 -94 24 -24 92 -18
193 18 163 57 226 98 256 166 16 36 21 81 28 252 11 260 26 350 100 629 110
406 120 424 310 533 245 140 380 401 474 920 34 184 50 303 91 674 68 604 131
925 200 1011 45 55 68 21 184 -271 43 -110 100 -263 126 -340 182 -549 284
-1507 185 -1732 -22 -51 -99 -110 -335 -258 -231 -145 -317 -208 -389 -286
-72 -77 -107 -145 -130 -247 -17 -78 -72 -407 -131 -792 -59 -381 -93 -522
-157 -643 -17 -31 -76 -106 -131 -165 -157 -170 -196 -228 -242 -364 -13 -39
-35 -83 -48 -97 -39 -42 -50 -70 -43 -113 9 -53 28 -88 81 -148 76 -85 79 -96
85 -276 3 -115 9 -166 19 -177 28 -34 88 -40 381 -39 272 1 424 12 444 32 16
16 -55 110 -271 356 -154 174 -183 226 -183 322 0 250 306 820 699 1302 106
131 346 377 426 437 81 62 207 120 410 188 499 168 964 479 1435 961 183 188
330 368 482 592 159 235 213 302 244 302 51 0 154 -111 154 -166 0 -42 -70
-126 -329 -392 -309 -318 -425 -448 -574 -642 -61 -80 -154 -196 -206 -258
-298 -352 -352 -463 -277 -571 61 -87 194 -171 612 -382 392 -199 497 -264
611 -381 123 -126 161 -230 173 -476 9 -180 20 -224 55 -230 54 -10 92 -77
121 -210 15 -72 22 -87 49 -108 80 -60 398 -178 517 -190 59 -6 66 -4 95 20
68 57 96 170 69 277 -46 177 -205 359 -621 708 -522 438 -735 665 -809 862
-123 329 24 710 291 754 94 15 218 -40 388 -174 111 -88 175 -114 262 -109 55
3 70 9 120 46 160 118 450 223 998 360 609 153 799 185 879 147 52 -25 143
-110 181 -170 18 -27 45 -84 60 -125 35 -91 86 -146 224 -240 337 -230 840
-802 1002 -1137 95 -197 119 -304 139 -613 15 -224 28 -355 41 -404 7 -25 28
-56 58 -85 55 -53 85 -122 96 -221 13 -121 53 -177 189 -267 83 -55 228 -124
308 -147 83 -24 248 -56 288 -56 57 0 268 47 303 68 48 28 43 76 -21 205 -133
267 -286 443 -498 572 -228 139 -307 204 -392 329 -132 191 -223 438 -303 826
-81 391 -200 829 -293 1079 -71 188 -91 297 -91 486 0 151 1 163 25 210 20 40
30 50 50 50 45 0 55 -41 50 -200 -7 -240 -5 -266 19 -313 31 -61 90 -122 136
-143 84 -36 339 -32 422 8 46 21 152 120 208 193 55 72 83 128 95 192 6 28 21
66 35 84 35 46 45 111 45 295 l0 159 -100 0 c-107 0 -197 22 -232 58 -37 37
-63 195 -103 627 -44 480 -67 600 -170 905 -67 197 -94 253 -143 293 -78 64
-225 216 -313 324 -136 167 -134 173 30 87 255 -134 475 -319 601 -504 110
-162 122 -230 140 -785 16 -465 36 -634 88 -712 26 -41 70 -57 152 -57 105 -1
146 22 262 142 239 250 331 468 458 1077 54 264 89 395 146 546 147 391 374
749 646 1020 115 115 228 202 375 288 103 61 163 106 163 123 0 39 -133 29
-345 -27 -182 -48 -324 -67 -495 -66 -209 0 -285 27 -408 145 -60 57 -75 87
-57 113 33 47 91 35 153 -31 74 -79 182 -116 337 -115 105 0 178 13 368 63
183 48 243 52 422 31 208 -24 331 -17 505 29 187 49 272 79 324 115 74 51 175
220 217 364 21 75 21 78 5 131 -24 76 -73 136 -153 189 -91 60 -93 61 -293
141 -247 100 -307 137 -468 288 -177 167 -282 241 -477 338 -275 136 -491 194
-700 188 -119 -3 -121 -4 -207 -47 -77 -38 -93 -43 -130 -37 -91 15 -171 85
-207 181 -27 73 -26 117 4 214 47 148 135 283 304 466 118 127 136 159 106
182 -26 18 -48 16 -145 -17z m929 -1507 c61 -49 37 -213 -30 -213 -26 0 -112
35 -159 65 -53 34 -51 55 9 99 88 65 142 80 180 49z m1021 -436 c0 -7 -11 -28
-25 -47 -34 -46 -32 -60 8 -60 107 0 178 -70 119 -117 -27 -22 -52 -15 -63 17
-6 17 -15 30 -20 30 -5 0 -12 0 -16 0 -5 1 -10 -14 -13 -31 -6 -38 -28 -54
-62 -46 -40 10 -68 39 -77 78 -13 55 7 97 67 146 53 43 82 54 82 30z"/>
<path d="M11416 9836 c-55 -156 -85 -208 -168 -292 -45 -46 -59 -67 -56 -85 5
-35 51 -53 133 -53 120 1 173 30 194 109 14 50 14 225 1 296 -15 78 -39 159
-48 159 -5 0 -30 -60 -56 -134z"/>
</g>
</svg>
